<svg width="12" height="16" viewBox="0 0 12 16" fill="none" xmlns="http://www.w3.org/2000/svg">
<path d="M1.05 9.74997C1.16667 9.63331 1.28767 9.57498 1.413 9.57498C1.53767 9.57498 1.65833 9.63331 1.775 9.74997L5.5 13.475L5.5 1.09998C5.5 0.949975 5.55 0.829309 5.65 0.737975C5.75 0.645975 5.86667 0.599975 6 0.599975C6.15 0.599975 6.271 0.645975 6.363 0.737975C6.45433 0.829309 6.5 0.949975 6.5 1.09998L6.5 13.475L10.25 9.72498C10.35 9.62498 10.4627 9.57498 10.588 9.57498C10.7127 9.57498 10.8333 9.63331 10.95 9.74998C11.0667 9.84998 11.125 9.96664 11.125 10.1C11.125 10.2333 11.0667 10.35 10.95 10.45L6.575 14.85C6.475 14.9333 6.37933 14.9916 6.288 15.025C6.196 15.0583 6.1 15.075 6 15.075C5.9 15.075 5.80433 15.0583 5.713 15.025C5.621 14.9916 5.525 14.9333 5.425 14.85L1.025 10.425C0.924999 10.3416 0.875 10.2333 0.875 10.1C0.875 9.96664 0.933332 9.84998 1.05 9.74997Z" fill="#6853E8"/>
</svg>
