<svg width="16" height="12" viewBox="0 0 16 12" fill="none" xmlns="http://www.w3.org/2000/svg">
<path d="M9.75156 10.95C9.6349 10.8333 9.57656 10.7123 9.57656 10.587C9.57656 10.4623 9.6349 10.3417 9.75156 10.225L13.4766 6.5H1.10156C0.951562 6.5 0.830896 6.45 0.739563 6.35C0.647563 6.25 0.601562 6.13333 0.601562 6C0.601562 5.85 0.647563 5.729 0.739563 5.637C0.830896 5.54567 0.951562 5.5 1.10156 5.5H13.4766L9.72656 1.75C9.62656 1.65 9.57656 1.53733 9.57656 1.412C9.57656 1.28733 9.6349 1.16667 9.75156 1.05C9.85156 0.933334 9.96823 0.875 10.1016 0.875C10.2349 0.875 10.3516 0.933334 10.4516 1.05L14.8516 5.425C14.9349 5.525 14.9932 5.62067 15.0266 5.712C15.0599 5.804 15.0766 5.9 15.0766 6C15.0766 6.1 15.0599 6.19567 15.0266 6.287C14.9932 6.379 14.9349 6.475 14.8516 6.575L10.4266 10.975C10.3432 11.075 10.2349 11.125 10.1016 11.125C9.96823 11.125 9.85156 11.0667 9.75156 10.95Z" fill="#6853E8"/>
</svg>
