<svg width="15" height="14" viewBox="0 0 15 14" fill="none" xmlns="http://www.w3.org/2000/svg">
<path d="M4.63203 9.86664C4.75425 9.98887 4.90981 10.05 5.0987 10.05C5.28759 10.05 5.44314 9.98887 5.56536 9.86664L7.4987 7.93331L9.4487 9.88331C9.57092 10.0055 9.72381 10.0638 9.90736 10.058C10.0905 10.0526 10.2431 9.98887 10.3654 9.86664C10.4876 9.74442 10.5487 9.58887 10.5487 9.39998C10.5487 9.21109 10.4876 9.05553 10.3654 8.93331L8.43203 6.99998L10.382 5.04998C10.5043 4.92776 10.5625 4.77487 10.5567 4.59131C10.5514 4.4082 10.4876 4.25553 10.3654 4.13331C10.2431 4.01109 10.0876 3.94998 9.8987 3.94998C9.70981 3.94998 9.55425 4.01109 9.43203 4.13331L7.4987 6.06665L5.5487 4.11665C5.42648 3.99442 5.27381 3.93598 5.0907 3.94131C4.90714 3.94709 4.75425 4.01109 4.63203 4.13331C4.50981 4.25553 4.4487 4.41109 4.4487 4.59998C4.4487 4.78887 4.50981 4.94442 4.63203 5.06665L6.56536 6.99998L4.61536 8.94998C4.49314 9.0722 4.43492 9.22487 4.4407 9.40798C4.44603 9.59153 4.50981 9.74442 4.63203 9.86664ZM7.4987 13.6666C6.57648 13.6666 5.70981 13.4915 4.8987 13.1413C4.08759 12.7915 3.38203 12.3166 2.78203 11.7166C2.18203 11.1166 1.70714 10.4111 1.35736 9.59998C1.00714 8.78887 0.832031 7.9222 0.832031 6.99998C0.832031 6.07776 1.00714 5.21109 1.35736 4.39998C1.70714 3.58887 2.18203 2.88331 2.78203 2.28331C3.38203 1.68331 4.08759 1.2082 4.8987 0.85798C5.70981 0.508202 6.57648 0.333313 7.4987 0.333313C8.42092 0.333313 9.28759 0.508202 10.0987 0.85798C10.9098 1.2082 11.6154 1.68331 12.2154 2.28331C12.8154 2.88331 13.2903 3.58887 13.64 4.39998C13.9903 5.21109 14.1654 6.07776 14.1654 6.99998C14.1654 7.9222 13.9903 8.78887 13.64 9.59998C13.2903 10.4111 12.8154 11.1166 12.2154 11.7166C11.6154 12.3166 10.9098 12.7915 10.0987 13.1413C9.28759 13.4915 8.42092 13.6666 7.4987 13.6666ZM7.4987 12.3333C8.97647 12.3333 10.2349 11.814 11.274 10.7753C12.3127 9.7362 12.832 8.47776 12.832 6.99998C12.832 5.5222 12.3127 4.26376 11.274 3.22465C10.2349 2.18598 8.97647 1.66665 7.4987 1.66665C6.02092 1.66665 4.7627 2.18598 3.72403 3.22465C2.68492 4.26376 2.16536 5.5222 2.16536 6.99998C2.16536 8.47776 2.68492 9.7362 3.72403 10.7753C4.7627 11.814 6.02092 12.3333 7.4987 12.3333Z" fill="white"/>
</svg>
