<svg width="19" height="13" viewBox="0 0 19 13" fill="none" xmlns="http://www.w3.org/2000/svg">
<path d="M10.5242 3.87498C10.3742 3.87498 10.2535 3.82931 10.1622 3.73798C10.0702 3.64598 10.0242 3.52498 10.0242 3.37498C10.0242 3.24164 10.0702 3.12498 10.1622 3.02498C10.2535 2.92498 10.3742 2.87498 10.5242 2.87498H17.5242C17.6575 2.87498 17.7742 2.92498 17.8742 3.02498C17.9742 3.12498 18.0242 3.24164 18.0242 3.37498C18.0242 3.52498 17.9742 3.64598 17.8742 3.73798C17.7742 3.82931 17.6575 3.87498 17.5242 3.87498H10.5242ZM10.5242 11.125C10.3742 11.125 10.2535 11.075 10.1622 10.975C10.0702 10.875 10.0242 10.7583 10.0242 10.625C10.0242 10.475 10.0702 10.354 10.1622 10.262C10.2535 10.1706 10.3742 10.125 10.5242 10.125H17.5242C17.6575 10.125 17.7742 10.1706 17.8742 10.262C17.9742 10.354 18.0242 10.475 18.0242 10.625C18.0242 10.7583 17.9742 10.875 17.8742 10.975C17.7742 11.075 17.6575 11.125 17.5242 11.125H10.5242ZM2.27416 5.09998L0.324162 3.17498C0.240829 3.07498 0.203495 2.95831 0.212162 2.82498C0.220162 2.69164 0.265829 2.57498 0.349162 2.47498C0.449162 2.39164 0.565829 2.34998 0.699162 2.34998C0.832495 2.34998 0.949162 2.39164 1.04916 2.47498L2.82416 4.27498L6.69916 0.374976C6.79916 0.274976 6.91983 0.224976 7.06116 0.224976C7.20316 0.224976 7.32416 0.274976 7.42416 0.374976C7.5075 0.474976 7.54916 0.595642 7.54916 0.736976C7.54916 0.878976 7.5075 0.999976 7.42416 1.09998L3.39916 5.09998C3.2325 5.26664 3.04516 5.34998 2.83716 5.34998C2.6285 5.34998 2.44083 5.26664 2.27416 5.09998ZM2.27416 12.35L0.324162 10.4C0.240829 10.3 0.203495 10.1833 0.212162 10.05C0.220162 9.91664 0.265829 9.79998 0.349162 9.69998C0.449162 9.61664 0.565829 9.57498 0.699162 9.57498C0.832495 9.57498 0.949162 9.61664 1.04916 9.69998L2.82416 11.5L6.69916 7.59998C6.79916 7.49998 6.91983 7.44998 7.06116 7.44998C7.20316 7.44998 7.32416 7.49998 7.42416 7.59998C7.5075 7.71664 7.54916 7.84164 7.54916 7.97498C7.54916 8.10831 7.5075 8.22498 7.42416 8.32498L3.39916 12.35C3.2325 12.5 3.04516 12.575 2.83716 12.575C2.6285 12.575 2.44083 12.5 2.27416 12.35Z" fill="#364E63"/>
</svg>
