<svg width="16" height="12" viewBox="0 0 16 12" fill="none" xmlns="http://www.w3.org/2000/svg">
<path d="M5.55256 11.575C5.41923 11.575 5.29423 11.554 5.17756 11.512C5.0609 11.4707 4.95256 11.4 4.85256 11.3L0.552564 7.00002C0.369231 6.81669 0.281564 6.57902 0.289564 6.28702C0.298231 5.99569 0.394231 5.75836 0.577564 5.57502C0.760897 5.39169 0.994231 5.30002 1.27756 5.30002C1.5609 5.30002 1.79423 5.39169 1.97756 5.57502L5.55256 9.15002L14.0276 0.675025C14.2109 0.491691 14.4486 0.400024 14.7406 0.400024C15.0319 0.400024 15.2692 0.491691 15.4526 0.675025C15.6359 0.858358 15.7276 1.09569 15.7276 1.38702C15.7276 1.67902 15.6359 1.91669 15.4526 2.10002L6.25256 11.3C6.15256 11.4 6.04423 11.4707 5.92756 11.512C5.8109 11.554 5.6859 11.575 5.55256 11.575Z" fill="#6853E8"/>
</svg>
