<svg width="17" height="16" viewBox="0 0 17 16" fill="none" xmlns="http://www.w3.org/2000/svg">
<path d="M12.9015 15.9269L8.39684 13.5648L3.89212 15.9269C3.76914 15.9922 3.62632 16.0139 3.48945 15.9902C3.14431 15.9308 2.91223 15.6044 2.97174 15.2602L12.9015 15.9269ZM12.9015 15.9269C13.0063 15.982 13.1244 16.0068 13.2425 15.9984M12.9015 15.9269L13.2425 15.9984M13.7847 15.6057C13.8292 15.4963 13.8421 15.3766 13.8219 15.2602L13.7847 15.6057ZM13.7847 15.6057C13.7401 15.7151 13.6657 15.8099 13.5699 15.8793M13.7847 15.6057L13.5699 15.8793M13.5699 15.8793C13.4741 15.9488 13.3607 15.99 13.2425 15.9984M13.5699 15.8793L13.2425 15.9984M6.02436 5.12575L5.90789 5.36123L5.6479 5.39891L0.613155 6.12866C0.612978 6.12868 0.612801 6.12871 0.612623 6.12874C0.533131 6.1408 0.488386 6.21083 0.498423 6.27572L0.498455 6.27571L0.499249 6.28126C0.503138 6.3084 0.51605 6.33478 0.537971 6.35632C0.538067 6.35642 0.538164 6.35651 0.53826 6.3566L4.18117 9.89874L4.37005 10.0824L4.32537 10.342L3.4645 15.345L3.46443 15.3454C3.45241 15.4149 3.49895 15.4845 3.57418 15.4974L3.5749 15.4975C3.60484 15.5027 3.63485 15.4974 3.65768 15.4852L3.65993 15.4841L8.16465 13.122L8.39684 13.0003L8.62903 13.122L13.1337 15.4841L13.1345 15.4845C13.1567 15.4962 13.1819 15.5015 13.2071 15.4997C13.2323 15.4979 13.2563 15.4891 13.2766 15.4744C13.2968 15.4598 13.3123 15.4399 13.3216 15.4172C13.3308 15.3945 13.3335 15.3697 13.3293 15.3457L13.3292 15.345L12.4683 10.342L12.4236 10.0824L12.6125 9.89874L16.2563 6.3557L16.2564 6.35567C16.282 6.33076 16.2964 6.29701 16.2969 6.26192C16.2973 6.22712 16.284 6.1933 16.2595 6.16782C16.238 6.14617 16.2113 6.13304 16.1833 6.12906L16.1821 6.12888L11.1458 5.39891L10.8858 5.36123L10.7693 5.12575L8.51915 0.576224C8.51902 0.575966 8.51889 0.575709 8.51876 0.575452C8.48453 0.508218 8.40186 0.481453 8.33602 0.513869L8.33544 0.514153C8.30938 0.526945 8.28851 0.547889 8.27594 0.573368L8.27573 0.573802L6.02436 5.12575ZM8.96612 0.352135L11.2175 4.90408L8.11517 0.0652895C8.42857 -0.0890138 8.80942 0.0395723 8.96612 0.352135Z" stroke="#6F869B"/>
</svg>
