<svg width="21" height="19" viewBox="0 0 21 19" fill="none" xmlns="http://www.w3.org/2000/svg">
<path d="M9.7 17.95C9.83333 17.95 9.96667 17.9207 10.1 17.862C10.2333 17.804 10.3417 17.7333 10.425 17.65L18.225 9.85001C18.475 9.60001 18.6707 9.34167 18.812 9.07501C18.954 8.80834 19.025 8.51667 19.025 8.20001C19.025 7.88334 18.954 7.57501 18.812 7.27501C18.6707 6.97501 18.475 6.70001 18.225 6.45001L14.475 2.70001C14.225 2.45001 13.971 2.26667 13.713 2.15001C13.4543 2.03334 13.1667 1.97501 12.85 1.97501C12.5333 1.97501 12.2417 2.03334 11.975 2.15001C11.7083 2.26667 11.4583 2.45001 11.225 2.70001L10.35 3.57501L12.2 5.42501C12.4 5.62501 12.5457 5.85001 12.637 6.10001C12.729 6.35001 12.775 6.60001 12.775 6.85001C12.775 7.38334 12.6083 7.81667 12.275 8.15001C11.9417 8.48334 11.5083 8.65001 10.975 8.65001C10.725 8.65001 10.4793 8.61234 10.238 8.53701C9.996 8.46234 9.775 8.32501 9.575 8.12501L7.65 6.22501L3.35 10.55C3.25 10.65 3.175 10.7623 3.125 10.887C3.075 11.0123 3.05 11.1417 3.05 11.275C3.05 11.5083 3.125 11.7043 3.275 11.863C3.425 12.021 3.61667 12.1 3.85 12.1C3.98333 12.1 4.11667 12.0707 4.25 12.012C4.38333 11.954 4.49167 11.8833 4.575 11.8L7.75 8.62501L8.45 9.32501L5.3 12.5C5.2 12.6 5.125 12.7127 5.075 12.838C5.025 12.9627 5 13.0917 5 13.225C5 13.4583 5.07933 13.654 5.238 13.812C5.396 13.9707 5.58333 14.05 5.8 14.05C5.93333 14.05 6.06667 14.0167 6.2 13.95C6.33333 13.8833 6.44167 13.8083 6.525 13.725L9.925 10.35L10.65 11.05L7.25 14.45C7.16667 14.5333 7.096 14.6417 7.038 14.775C6.97933 14.9083 6.95 15.0417 6.95 15.175C6.95 15.4083 7.02933 15.604 7.188 15.762C7.346 15.9207 7.53333 16 7.75 16C7.88333 16 8.01267 15.975 8.138 15.925C8.26267 15.875 8.375 15.7917 8.475 15.675L11.875 12.3L12.6 13L9.2 16.4C9.1 16.5 9.025 16.621 8.975 16.763C8.925 16.9043 8.9 17.0333 8.9 17.15C8.9 17.3833 8.979 17.575 9.137 17.725C9.29567 17.875 9.48333 17.95 9.7 17.95ZM9.7 18.95C9.18333 18.95 8.74167 18.7623 8.375 18.387C8.00833 18.0123 7.85 17.5417 7.9 16.975C7.33333 16.9917 6.86267 16.825 6.488 16.475C6.11267 16.125 5.93333 15.6417 5.95 15.025C5.33333 15.0417 4.846 14.8707 4.488 14.512C4.12933 14.154 3.96667 13.675 4 13.075C3.43333 13.0917 2.96667 12.9377 2.6 12.613C2.23333 12.2877 2.05 11.8417 2.05 11.275C2.05 11.025 2.096 10.7707 2.188 10.512C2.27933 10.254 2.425 10.025 2.625 9.82501L7.65 4.80001L10.25 7.40001C10.3333 7.48334 10.4373 7.55401 10.562 7.61201C10.6873 7.67067 10.825 7.70001 10.975 7.70001C11.1917 7.70001 11.3833 7.62501 11.55 7.47501C11.7167 7.32501 11.8 7.12501 11.8 6.87501C11.8 6.72501 11.771 6.58734 11.713 6.46201C11.6543 6.33734 11.575 6.23334 11.475 6.15001L8.05 2.70001C7.8 2.45001 7.54167 2.26667 7.275 2.15001C7.00833 2.03334 6.71667 1.97501 6.4 1.97501C6.08333 1.97501 5.796 2.03334 5.538 2.15001C5.27933 2.26667 5.025 2.45001 4.775 2.70001L1.725 5.75001C1.525 5.96667 1.35833 6.22501 1.225 6.52501C1.09167 6.82501 1.01667 7.13334 1 7.45001C1 7.66667 1.02067 7.87901 1.062 8.08701C1.104 8.29567 1.175 8.49167 1.275 8.67501L0.525 9.45001C0.358333 9.16667 0.229333 8.85401 0.138 8.51201C0.046 8.17067 0 7.81667 0 7.45001C0 6.98334 0.0876667 6.54567 0.263 6.13701C0.437667 5.72901 0.691667 5.35834 1.025 5.02501L4.05 2.00001C4.4 1.65001 4.76667 1.39167 5.15 1.22501C5.53333 1.05834 5.95833 0.975006 6.425 0.975006C6.875 0.975006 7.29167 1.05834 7.675 1.22501C8.05833 1.39167 8.41667 1.65001 8.75 2.00001L9.625 2.87501L10.5 2.00001C10.85 1.65001 11.2167 1.39167 11.6 1.22501C11.9833 1.05834 12.4 0.975006 12.85 0.975006C13.3 0.975006 13.721 1.05834 14.113 1.22501C14.5043 1.39167 14.875 1.65001 15.225 2.00001L18.95 5.72501C19.2833 6.07501 19.546 6.46234 19.738 6.88701C19.9293 7.31234 20.025 7.75001 20.025 8.20001C20.025 8.66667 19.9293 9.09167 19.738 9.47501C19.546 9.85834 19.2833 10.2167 18.95 10.55L11.15 18.35C10.9333 18.55 10.7043 18.7 10.463 18.8C10.221 18.9 9.96667 18.95 9.7 18.95Z" fill="#364E63"/>
</svg>
