<svg width="20" height="20" viewBox="0 0 20 20" fill="none" xmlns="http://www.w3.org/2000/svg">
<path d="M9.95 16C10.3 16 10.596 15.879 10.838 15.637C11.0793 15.3957 11.2 15.1 11.2 14.75C11.2 14.4 11.0793 14.1043 10.838 13.863C10.596 13.621 10.3 13.5 9.95 13.5C9.6 13.5 9.304 13.621 9.062 13.863C8.82067 14.1043 8.7 14.4 8.7 14.75C8.7 15.1 8.82067 15.3957 9.062 15.637C9.304 15.879 9.6 16 9.95 16ZM10.1 5.7C10.5667 5.7 10.9417 5.829 11.225 6.087C11.5083 6.34567 11.65 6.68333 11.65 7.1C11.65 7.38333 11.5543 7.67067 11.363 7.962C11.171 8.254 10.9 8.55833 10.55 8.875C10.05 9.30833 9.68333 9.725 9.45 10.125C9.21667 10.525 9.1 10.925 9.1 11.325C9.1 11.5583 9.18767 11.754 9.363 11.912C9.53767 12.0707 9.74167 12.15 9.975 12.15C10.2083 12.15 10.4167 12.0667 10.6 11.9C10.7833 11.7333 10.9 11.525 10.95 11.275C11 10.9917 11.1127 10.7293 11.288 10.488C11.4627 10.246 11.75 9.93333 12.15 9.55C12.6667 9.06667 13.0293 8.625 13.238 8.225C13.446 7.825 13.55 7.38333 13.55 6.9C13.55 6.05 13.2293 5.354 12.588 4.812C11.946 4.27067 11.1167 4 10.1 4C9.4 4 8.77933 4.13333 8.238 4.4C7.696 4.66667 7.275 5.075 6.975 5.625C6.85833 5.84167 6.81667 6.054 6.85 6.262C6.88333 6.47067 7 6.64167 7.2 6.775C7.41667 6.90833 7.65433 6.95 7.913 6.9C8.171 6.85 8.38333 6.70833 8.55 6.475C8.73333 6.225 8.95433 6.03333 9.213 5.9C9.471 5.76667 9.76667 5.7 10.1 5.7ZM10 20C8.63333 20 7.34167 19.7373 6.125 19.212C4.90833 18.6873 3.846 17.975 2.938 17.075C2.02933 16.175 1.31267 15.1167 0.788 13.9C0.262667 12.6833 0 11.3833 0 10C0 8.61667 0.262667 7.31667 0.788 6.1C1.31267 4.88333 2.02933 3.825 2.938 2.925C3.846 2.025 4.90833 1.31233 6.125 0.787C7.34167 0.262333 8.63333 0 10 0C11.4 0 12.7083 0.262333 13.925 0.787C15.1417 1.31233 16.2 2.025 17.1 2.925C18 3.825 18.7083 4.88333 19.225 6.1C19.7417 7.31667 20 8.61667 20 10C20 11.3833 19.7417 12.6833 19.225 13.9C18.7083 15.1167 18 16.175 17.1 17.075C16.2 17.975 15.1417 18.6873 13.925 19.212C12.7083 19.7373 11.4 20 10 20ZM10 18C12.2333 18 14.125 17.221 15.675 15.663C17.225 14.1043 18 12.2167 18 10C18 7.78333 17.225 5.89567 15.675 4.337C14.125 2.779 12.2333 2 10 2C7.81667 2 5.93733 2.779 4.362 4.337C2.78733 5.89567 2 7.78333 2 10C2 12.2167 2.78733 14.1043 4.362 15.663C5.93733 17.221 7.81667 18 10 18Z" fill="#6F869B"/>
</svg>
