<svg width="20" height="15" viewBox="0 0 20 15" fill="none" xmlns="http://www.w3.org/2000/svg">
<path d="M4.5 12.05C5.36667 12.05 6.21267 12.15 7.038 12.35C7.86267 12.55 8.68333 12.875 9.5 13.325V3.50001C8.78333 2.98335 7.98767 2.59568 7.113 2.33701C6.23767 2.07901 5.36667 1.95001 4.5 1.95001C3.9 1.95001 3.375 1.98735 2.925 2.06201C2.475 2.13735 1.975 2.27501 1.425 2.47501C1.275 2.52501 1.16667 2.59601 1.1 2.68801C1.03333 2.77935 1 2.88335 1 3.00001V12.025C1 12.2083 1.06267 12.3417 1.188 12.425C1.31267 12.5083 1.45833 12.5167 1.625 12.45C1.99167 12.3167 2.41267 12.2167 2.888 12.15C3.36267 12.0833 3.9 12.05 4.5 12.05ZM10.5 13.325C11.3167 12.875 12.1377 12.55 12.963 12.35C13.7877 12.15 14.6333 12.05 15.5 12.05C16.1 12.05 16.6377 12.0833 17.113 12.15C17.5877 12.2167 18.0083 12.3167 18.375 12.45C18.5417 12.5167 18.6873 12.5083 18.812 12.425C18.9373 12.3417 19 12.2083 19 12.025V3.00001C19 2.88335 18.9667 2.78335 18.9 2.70001C18.8333 2.61668 18.725 2.54168 18.575 2.47501C18.025 2.27501 17.525 2.13735 17.075 2.06201C16.625 1.98735 16.1 1.95001 15.5 1.95001C14.6333 1.95001 13.7623 2.07901 12.887 2.33701C12.0123 2.59568 11.2167 2.98335 10.5 3.50001V13.325ZM10 14.45C9.85 14.45 9.70833 14.4333 9.575 14.4C9.44167 14.3667 9.31667 14.3167 9.2 14.25C8.46667 13.85 7.70833 13.55 6.925 13.35C6.14167 13.15 5.33333 13.05 4.5 13.05C3.98333 13.05 3.475 13.0917 2.975 13.175C2.475 13.2583 1.98333 13.4 1.5 13.6C1.13333 13.7333 0.791667 13.6833 0.475 13.45C0.158333 13.2167 0 12.9 0 12.5V2.82501C0 2.57501 0.0666667 2.34568 0.2 2.13701C0.333333 1.92901 0.516667 1.78335 0.75 1.70001C1.33333 1.43335 1.94167 1.24168 2.575 1.12501C3.20833 1.00835 3.85 0.950012 4.5 0.950012C5.48333 0.950012 6.44167 1.09168 7.375 1.37501C8.30833 1.65835 9.18333 2.07501 10 2.62501C10.8167 2.07501 11.6917 1.65835 12.625 1.37501C13.5583 1.09168 14.5167 0.950012 15.5 0.950012C16.15 0.950012 16.7917 1.00835 17.425 1.12501C18.0583 1.24168 18.6667 1.43335 19.25 1.70001C19.4833 1.78335 19.6667 1.92901 19.8 2.13701C19.9333 2.34568 20 2.57501 20 2.82501V12.5C20 12.9 19.8293 13.2127 19.488 13.438C19.146 13.6627 18.775 13.7 18.375 13.55C17.925 13.3667 17.4583 13.2377 16.975 13.163C16.4917 13.0877 16 13.05 15.5 13.05C14.6667 13.05 13.8583 13.15 13.075 13.35C12.2917 13.55 11.5333 13.85 10.8 14.25C10.6833 14.3167 10.5583 14.3667 10.425 14.4C10.2917 14.4333 10.15 14.45 10 14.45Z" fill="#364E63"/>
</svg>
