<svg width="22" height="16" viewBox="0 0 22 16" fill="none" xmlns="http://www.w3.org/2000/svg">
<path d="M2.46875 15.5C2.05208 15.5 1.69808 15.354 1.40675 15.062C1.11475 14.7707 0.96875 14.4167 0.96875 14C0.96875 13.5833 1.11475 13.2293 1.40675 12.938C1.69808 12.646 2.05208 12.5 2.46875 12.5C2.60208 12.5 2.71875 12.5083 2.81875 12.525C2.91875 12.5417 3.01875 12.5917 3.11875 12.675L8.14375 7.65001C8.06042 7.55001 8.01042 7.45001 7.99375 7.35001C7.97708 7.25001 7.96875 7.13335 7.96875 7.00001C7.96875 6.58335 8.11475 6.22935 8.40675 5.93801C8.69808 5.64601 9.05208 5.50001 9.46875 5.50001C9.88542 5.50001 10.2394 5.64601 10.5308 5.93801C10.8228 6.22935 10.9688 6.58335 10.9688 7.00001C10.9688 7.08335 10.9271 7.29168 10.8438 7.62501L13.8438 10.625C13.9438 10.575 14.0398 10.5417 14.1318 10.525C14.2231 10.5083 14.3354 10.5 14.4688 10.5C14.6021 10.5 14.7188 10.5083 14.8188 10.525C14.9188 10.5417 15.0104 10.5917 15.0938 10.675L19.1437 6.62501C19.0604 6.54168 19.0104 6.45001 18.9937 6.35001C18.9771 6.25001 18.9688 6.13335 18.9688 6.00001C18.9688 5.58335 19.1147 5.22935 19.4067 4.93801C19.6981 4.64601 20.0521 4.50001 20.4688 4.50001C20.8854 4.50001 21.2394 4.64601 21.5308 4.93801C21.8228 5.22935 21.9688 5.58335 21.9688 6.00001C21.9688 6.41668 21.8228 6.77068 21.5308 7.06201C21.2394 7.35401 20.8854 7.50001 20.4688 7.50001C20.3354 7.50001 20.2188 7.49168 20.1187 7.47501C20.0187 7.45835 19.9271 7.40835 19.8438 7.32501L15.7938 11.375C15.8771 11.4583 15.9271 11.55 15.9438 11.65C15.9604 11.75 15.9688 11.8667 15.9688 12C15.9688 12.4167 15.8228 12.7707 15.5308 13.062C15.2394 13.354 14.8854 13.5 14.4688 13.5C14.0521 13.5 13.6981 13.354 13.4067 13.062C13.1147 12.7707 12.9688 12.4167 12.9688 12C12.9688 11.8667 12.9771 11.75 12.9937 11.65C13.0104 11.55 13.0604 11.45 13.1438 11.35L10.1187 8.32501C10.0187 8.40835 9.91875 8.45835 9.81875 8.47501C9.71875 8.49168 9.60208 8.50001 9.46875 8.50001C9.38542 8.50001 9.17708 8.45835 8.84375 8.37501L3.84375 13.375C3.89375 13.475 3.92708 13.571 3.94375 13.663C3.96042 13.7543 3.96875 13.8667 3.96875 14C3.96875 14.4167 3.82275 14.7707 3.53075 15.062C3.23942 15.354 2.88542 15.5 2.46875 15.5ZM3.46875 5.17501L3.09375 4.37501L2.29375 4.00001L3.09375 3.62501L3.46875 2.82501L3.84375 3.62501L4.64375 4.00001L3.84375 4.37501L3.46875 5.17501ZM14.4688 3.80001L13.8938 2.57501L12.6687 2.00001L13.8938 1.42501L14.4688 0.200012L15.0437 1.42501L16.2687 2.00001L15.0437 2.57501L14.4688 3.80001Z" fill="#364E63"/>
</svg>
