<svg id="Layer_1" data-name="Layer 1" xmlns="http://www.w3.org/2000/svg" viewBox="0 0 400 400"><defs><style>.cls-1{fill:#fff;}</style></defs><ellipse class="cls-1" cx="213.93" cy="199.07" rx="1.2" ry="125.09" transform="translate(-58.85 303.9) rotate(-63.96)"/><path class="cls-1" d="M267.1,182A32.26,32.26,0,0,0,304,142.2l0-.06-.11-.44A32.3,32.3,0,0,0,267,118.31c-29,1-76.48-26.95-88-52.44a32.25,32.25,0,1,0-26.2,45.37c23.8-2.39,62.36,17.14,81.51,38.86-12,13.67-31.72,26.47-50.62,33.5l31.81,15.16C232.77,188.4,252.35,181.41,267.1,182Z"/><path class="cls-1" d="M319.87,281.15A32,32,0,0,0,300.56,277c-23.84,2.39-62.45-17.19-81.59-38.94,7.1-8.06,16.88-15.81,27.57-22.26l-31.81-15.16c-10.21,3.8-20.18,5.93-28.58,5.59a32.33,32.33,0,0,0-36,21.3l0,.11-.14.43-.17.52v0a32.25,32.25,0,0,0,36.26,41.33c28.94-1.27,76.77,26.82,88.31,52.42a32.25,32.25,0,1,0,45.51-41.21Z"/><path class="cls-1" d="M90.77,283.36a26.77,26.77,0,1,0,26.77,26.77A26.78,26.78,0,0,0,90.77,283.36Z"/></svg>