<svg id="Layer_1" data-name="Layer 1" xmlns="http://www.w3.org/2000/svg" viewBox="0 0 2009 519"><defs><style>.cls-1{fill:#fff;}</style></defs><path class="cls-1" d="M135,87.76a118.9,118.9,0,0,1,37.34,5.64,85.41,85.41,0,0,1,29.81,16.72A76.71,76.71,0,0,1,222,137.53q7.18,16.32,7.18,37.32a117.45,117.45,0,0,1-4.6,32.66,82,82,0,0,1-15.09,29q-10.49,13-27.59,21t-42.5,8H100.07V368.85H64.38V87.76Zm3.68,141.13q15.81,0,26.3-5.06a42.94,42.94,0,0,0,16.38-13,53.18,53.18,0,0,0,8.46-16.91,63.3,63.3,0,0,0,2.58-17.5,59.21,59.21,0,0,0-2.76-17.49A54.3,54.3,0,0,0,180.83,142,46.42,46.42,0,0,0,165,129q-9.75-5-23.73-5h-41.2v105Zm43.78,21.77L252,368.85H210.81l-71-117Z"/><path class="cls-1" d="M430.47,372.74q-26.13,0-44.89-11.08a76.55,76.55,0,0,1-29.07-30.33q-10.31-19.24-10.3-44.12a82.66,82.66,0,0,1,11.59-43.16A89.68,89.68,0,0,1,388.52,213a80.32,80.32,0,0,1,42.68-11.66q30.17,0,50,18.66t27.23,51.32L382.64,317.92l-8.1-21.38,102.65-40.05-7,5.45a52.5,52.5,0,0,0-14.72-22.16q-10.29-9.34-26.85-9.34a44.85,44.85,0,0,0-24.84,7,48.71,48.71,0,0,0-17.11,19.25q-6.26,12.24-6.25,28.57t6.44,29.16a48.14,48.14,0,0,0,44.33,27.21,50.08,50.08,0,0,0,19.32-3.88,84.84,84.84,0,0,0,17.84-10.11l15.46,26.82a103,103,0,0,1-25.58,13.22A82.3,82.3,0,0,1,430.47,372.74Z"/><path class="cls-1" d="M629.88,368.85V240.16H603.39V207.51h26.49V139.86q0-35,14.9-53.65t44.33-18.66A69.1,69.1,0,0,1,706,69.88a43.49,43.49,0,0,1,16.19,7.77L707.88,103.7a15.61,15.61,0,0,0-7-4.86,26.64,26.64,0,0,0-8.47-1.36q-13.6,0-21,9.72t-7.36,33.44v66.87h48.2v32.65h-48.2V368.85Z"/><path class="cls-1" d="M853.57,207.9l3.32,46.65-1.48-6.61a71,71,0,0,1,16.93-24.88,81.13,81.13,0,0,1,23.55-15.94q12.5-5.44,21.33-5.83l-1.47,36.54q-17.65-1.54-30.72,6.8a60.89,60.89,0,0,0-20.6,21.78,58.11,58.11,0,0,0-7.54,29v73.48H822.67v-161Z"/><path class="cls-1" d="M1087.21,372.74a78.6,78.6,0,0,1-38.82-9.72q-17.48-9.72-27.78-28.58t-10.3-46.07q0-27.21,10.67-46.65A76.21,76.21,0,0,1,1089,201.29q21.35,0,36.25,10.3t22.25,24.3l-2.2,5.83,3.31-33.82h31.64v161h-34.22v-42l4,9.33a49.13,49.13,0,0,1-7,9.92,91.66,91.66,0,0,1-13.06,12.24,71,71,0,0,1-18.58,10.31A67.66,67.66,0,0,1,1087.21,372.74Zm9.19-29.94a51.91,51.91,0,0,0,23.18-5.05,46,46,0,0,0,17.11-14.39,55.49,55.49,0,0,0,9.38-21.77V270.1a50.38,50.38,0,0,0-10.3-20.41,51.46,51.46,0,0,0-40.1-18.47,47.52,47.52,0,0,0-25.39,7,51,51,0,0,0-18.21,19.44q-6.81,12.45-6.81,29.16a58.33,58.33,0,0,0,7,28.38A53.66,53.66,0,0,0,1071,335.42,46.9,46.9,0,0,0,1096.4,342.8Z"/><path class="cls-1" d="M1429.37,353.69a75.13,75.13,0,0,1-24.65,14,85.86,85.86,0,0,1-28.7,5.06q-24.64,0-43.59-10.5a74.91,74.91,0,0,1-29.62-29.55q-10.68-19-10.67-44.71t11.4-44.51a80.81,80.81,0,0,1,29.62-29.16,79.07,79.07,0,0,1,39.55-10.3,95.33,95.33,0,0,1,32.56,5.25,74.64,74.64,0,0,1,25.21,15l-17.3,23.33a76,76,0,0,0-16-9.52,51.05,51.05,0,0,0-21.52-4.48,45,45,0,0,0-24.84,7.2,50.55,50.55,0,0,0-17.66,19.44,58.83,58.83,0,0,0-6.44,27.79,57.8,57.8,0,0,0,6.63,27.61,51.62,51.62,0,0,0,18.39,19.83q11.77,7.38,27.23,7.38a50.19,50.19,0,0,0,17.84-3.11,52,52,0,0,0,14.9-8.55Z"/><path class="cls-1" d="M1554.1,137.14h35v71.53h41.58v28.38h-41.58v131.8h-35V237.05h-27.6V208.67h27.6Z"/><path class="cls-1" d="M1724.44,286.82q0-24.1,10.86-43.55a80.31,80.31,0,0,1,30.17-30.71q19.32-11.26,44-11.27t43.42,11.27a78.89,78.89,0,0,1,29.25,30.71q10.49,19.46,10.49,43.55t-10.49,43.54a80.18,80.18,0,0,1-29.25,30.91q-18.76,11.46-43.78,11.47-24.66,0-43.6-10.69a78.55,78.55,0,0,1-30-29.94Q1724.44,312.86,1724.44,286.82Zm34.59.39a59.8,59.8,0,0,0,6.62,28.18,53.42,53.42,0,0,0,17.66,20,44,44,0,0,0,25,7.38,44.61,44.61,0,0,0,25.39-7.38,51.88,51.88,0,0,0,17.47-20,64.9,64.9,0,0,0,0-56.37,53.5,53.5,0,0,0-17.47-20.22,43.79,43.79,0,0,0-25.39-7.58,43.24,43.24,0,0,0-25.2,7.78,54.41,54.41,0,0,0-17.66,20.41A60.23,60.23,0,0,0,1759,287.21Z"/><path class="cls-1" d="M135,87.76a118.9,118.9,0,0,1,37.34,5.64,85.41,85.41,0,0,1,29.81,16.72A76.71,76.71,0,0,1,222,137.53q7.18,16.32,7.18,37.32a117.45,117.45,0,0,1-4.6,32.66,82,82,0,0,1-15.09,29q-10.49,13-27.59,21t-42.5,8H100.07V368.85H64.38V87.76Zm3.68,141.13q15.81,0,26.3-5.06a42.94,42.94,0,0,0,16.38-13,53.18,53.18,0,0,0,8.46-16.91,63.3,63.3,0,0,0,2.58-17.5,59.21,59.21,0,0,0-2.76-17.49A54.3,54.3,0,0,0,180.83,142,46.42,46.42,0,0,0,165,129q-9.75-5-23.73-5h-41.2v105Zm43.78,21.77L252,368.85H210.81l-71-117Z"/><path class="cls-1" d="M430.47,372.74q-26.13,0-44.89-11.08a76.55,76.55,0,0,1-29.07-30.33q-10.31-19.24-10.3-44.12a82.66,82.66,0,0,1,11.59-43.16A89.68,89.68,0,0,1,388.52,213a80.32,80.32,0,0,1,42.68-11.66q30.17,0,50,18.66t27.23,51.32L382.64,317.92l-8.1-21.38,102.65-40.05-7,5.45a52.5,52.5,0,0,0-14.72-22.16q-10.29-9.34-26.85-9.34a44.85,44.85,0,0,0-24.84,7,48.71,48.71,0,0,0-17.11,19.25q-6.26,12.24-6.25,28.57t6.44,29.16a48.14,48.14,0,0,0,44.33,27.21,50.08,50.08,0,0,0,19.32-3.88,84.84,84.84,0,0,0,17.84-10.11l15.46,26.82a103,103,0,0,1-25.58,13.22A82.3,82.3,0,0,1,430.47,372.74Z"/><path class="cls-1" d="M629.88,368.85V240.16H603.39V207.51h26.49V139.86q0-35,14.9-53.65t44.33-18.66A69.1,69.1,0,0,1,706,69.88a43.49,43.49,0,0,1,16.19,7.77L707.88,103.7a15.61,15.61,0,0,0-7-4.86,26.64,26.64,0,0,0-8.47-1.36q-13.6,0-21,9.72t-7.36,33.44v66.87h48.2v32.65h-48.2V368.85Z"/><path class="cls-1" d="M853.57,207.9l3.32,46.65-1.48-6.61a71,71,0,0,1,16.93-24.88,81.13,81.13,0,0,1,23.55-15.94q12.5-5.44,21.33-5.83l-1.47,36.54q-17.65-1.54-30.72,6.8a60.89,60.89,0,0,0-20.6,21.78,58.11,58.11,0,0,0-7.54,29v73.48H822.67v-161Z"/><path class="cls-1" d="M1087.21,372.74a78.6,78.6,0,0,1-38.82-9.72q-17.48-9.72-27.78-28.58t-10.3-46.07q0-27.21,10.67-46.65A76.21,76.21,0,0,1,1089,201.29q21.35,0,36.25,10.3t22.25,24.3l-2.2,5.83,3.31-33.82h31.64v161h-34.22v-42l4,9.33a49.13,49.13,0,0,1-7,9.92,91.66,91.66,0,0,1-13.06,12.24,71,71,0,0,1-18.58,10.31A67.66,67.66,0,0,1,1087.21,372.74Zm9.19-29.94a51.91,51.91,0,0,0,23.18-5.05,46,46,0,0,0,17.11-14.39,55.49,55.49,0,0,0,9.38-21.77V270.1a50.38,50.38,0,0,0-10.3-20.41,51.46,51.46,0,0,0-40.1-18.47,47.52,47.52,0,0,0-25.39,7,51,51,0,0,0-18.21,19.44q-6.81,12.45-6.81,29.16a58.33,58.33,0,0,0,7,28.38A53.66,53.66,0,0,0,1071,335.42,46.9,46.9,0,0,0,1096.4,342.8Z"/><path class="cls-1" d="M1429.37,353.69a75.13,75.13,0,0,1-24.65,14,85.86,85.86,0,0,1-28.7,5.06q-24.64,0-43.59-10.5a74.91,74.91,0,0,1-29.62-29.55q-10.68-19-10.67-44.71t11.4-44.51a80.81,80.81,0,0,1,29.62-29.16,79.07,79.07,0,0,1,39.55-10.3,95.33,95.33,0,0,1,32.56,5.25,74.64,74.64,0,0,1,25.21,15l-17.3,23.33a76,76,0,0,0-16-9.52,51.05,51.05,0,0,0-21.52-4.48,45,45,0,0,0-24.84,7.2,50.55,50.55,0,0,0-17.66,19.44,58.83,58.83,0,0,0-6.44,27.79,57.8,57.8,0,0,0,6.63,27.61,51.62,51.62,0,0,0,18.39,19.83q11.77,7.38,27.23,7.38a50.19,50.19,0,0,0,17.84-3.11,52,52,0,0,0,14.9-8.55Z"/><path class="cls-1" d="M1554.1,137.14h35v71.53h41.58v28.38h-41.58v131.8h-35V237.05h-27.6V208.67h27.6Z"/><path class="cls-1" d="M1724.44,286.82q0-24.1,10.86-43.55a80.31,80.31,0,0,1,30.17-30.71q19.32-11.26,44-11.27t43.42,11.27a78.89,78.89,0,0,1,29.25,30.71q10.49,19.46,10.49,43.55t-10.49,43.54a80.18,80.18,0,0,1-29.25,30.91q-18.76,11.46-43.78,11.47-24.66,0-43.6-10.69a78.55,78.55,0,0,1-30-29.94Q1724.44,312.86,1724.44,286.82Zm34.59.39a59.8,59.8,0,0,0,6.62,28.18,53.42,53.42,0,0,0,17.66,20,44,44,0,0,0,25,7.38,44.61,44.61,0,0,0,25.39-7.38,51.88,51.88,0,0,0,17.47-20,64.9,64.9,0,0,0,0-56.37,53.5,53.5,0,0,0-17.47-20.22,43.79,43.79,0,0,0-25.39-7.58,43.24,43.24,0,0,0-25.2,7.78,54.41,54.41,0,0,0-17.66,20.41A60.23,60.23,0,0,0,1759,287.21Z"/></svg>