<svg width="18" height="18" viewBox="0 0 18 18" fill="none" xmlns="http://www.w3.org/2000/svg">
<path d="M8.975 15.625C9.10833 15.625 9.225 15.575 9.325 15.475C9.425 15.375 9.475 15.2583 9.475 15.125V14.45C10.1917 14.3833 10.8793 14.121 11.538 13.663C12.196 13.2043 12.525 12.5 12.525 11.55C12.525 10.85 12.3123 10.254 11.887 9.762C11.4623 9.27067 10.65 8.80833 9.45 8.375C8.33333 7.99167 7.625 7.66233 7.325 7.387C7.025 7.11233 6.875 6.71667 6.875 6.2C6.875 5.68333 7.071 5.25833 7.463 4.925C7.85433 4.59167 8.38333 4.425 9.05 4.425C9.46667 4.425 9.82933 4.504 10.138 4.662C10.446 4.82067 10.7083 5.03333 10.925 5.3C10.9917 5.4 11.0833 5.47067 11.2 5.512C11.3167 5.554 11.425 5.55 11.525 5.5C11.6583 5.45 11.754 5.35833 11.812 5.225C11.8707 5.09167 11.8583 4.975 11.775 4.875C11.5083 4.49167 11.175 4.18333 10.775 3.95C10.375 3.71667 9.95833 3.58333 9.525 3.55V2.875C9.525 2.74167 9.475 2.625 9.375 2.525C9.275 2.425 9.15833 2.375 9.025 2.375C8.89167 2.375 8.775 2.425 8.675 2.525C8.575 2.625 8.525 2.74167 8.525 2.875V3.55C7.65833 3.7 7 4.029 6.55 4.537C6.1 5.04567 5.875 5.6 5.875 6.2C5.875 6.91667 6.104 7.49167 6.562 7.925C7.02067 8.35833 7.78333 8.76667 8.85 9.15C9.93333 9.55 10.6583 9.90833 11.025 10.225C11.3917 10.5417 11.575 10.9833 11.575 11.55C11.575 12.25 11.3167 12.754 10.8 13.062C10.2833 13.3707 9.73333 13.525 9.15 13.525C8.63333 13.525 8.16667 13.3917 7.75 13.125C7.33333 12.8583 6.98333 12.4917 6.7 12.025C6.63333 11.9083 6.53333 11.829 6.4 11.787C6.26667 11.7457 6.15 11.75 6.05 11.8C5.91667 11.8333 5.825 11.9167 5.775 12.05C5.725 12.1833 5.725 12.3083 5.775 12.425C6.075 12.975 6.45 13.4083 6.9 13.725C7.35 14.0417 7.875 14.2667 8.475 14.4V15.125C8.475 15.2583 8.525 15.375 8.625 15.475C8.725 15.575 8.84167 15.625 8.975 15.625ZM9 18C7.75 18 6.57933 17.7627 5.488 17.288C4.396 16.8127 3.446 16.1707 2.638 15.362C1.82933 14.554 1.18733 13.604 0.712 12.512C0.237333 11.4207 0 10.25 0 9C0 7.75 0.237333 6.579 0.712 5.487C1.18733 4.39567 1.82933 3.44567 2.638 2.637C3.446 1.829 4.396 1.18733 5.488 0.712C6.57933 0.237333 7.75 0 9 0C10.25 0 11.421 0.237333 12.513 0.712C13.6043 1.18733 14.5543 1.829 15.363 2.637C16.171 3.44567 16.8127 4.39567 17.288 5.487C17.7627 6.579 18 7.75 18 9C18 10.25 17.7627 11.4207 17.288 12.512C16.8127 13.604 16.171 14.554 15.363 15.362C14.5543 16.1707 13.6043 16.8127 12.513 17.288C11.421 17.7627 10.25 18 9 18ZM9 17C11.2167 17 13.1043 16.221 14.663 14.663C16.221 13.1043 17 11.2167 17 9C17 6.78333 16.221 4.89567 14.663 3.337C13.1043 1.779 11.2167 1 9 1C6.78333 1 4.896 1.779 3.338 3.337C1.77933 4.89567 1 6.78333 1 9C1 11.2167 1.77933 13.1043 3.338 14.663C4.896 16.221 6.78333 17 9 17Z" fill="#364E63"/>
</svg>
