<svg width="19" height="19" viewBox="0 0 19 19" fill="none" xmlns="http://www.w3.org/2000/svg">
<path d="M1.81641 16.2264C1.53307 16.2264 1.29574 16.1304 1.10441 15.9384C0.912406 15.7471 0.816406 15.5098 0.816406 15.2264C0.816406 14.9431 0.912406 14.7058 1.10441 14.5144C1.29574 14.3224 1.53307 14.2264 1.81641 14.2264H5.81641C6.09974 14.2264 6.33741 14.3224 6.52941 14.5144C6.72074 14.7058 6.81641 14.9431 6.81641 15.2264C6.81641 15.5098 6.72074 15.7471 6.52941 15.9384C6.33741 16.1304 6.09974 16.2264 5.81641 16.2264H1.81641ZM1.81641 4.22644C1.53307 4.22644 1.29574 4.13077 1.10441 3.93944C0.912406 3.74744 0.816406 3.50977 0.816406 3.22644C0.816406 2.94311 0.912406 2.70544 1.10441 2.51344C1.29574 2.32211 1.53307 2.22644 1.81641 2.22644H9.81641C10.0997 2.22644 10.3374 2.32211 10.5294 2.51344C10.7207 2.70544 10.8164 2.94311 10.8164 3.22644C10.8164 3.50977 10.7207 3.74744 10.5294 3.93944C10.3374 4.13077 10.0997 4.22644 9.81641 4.22644H1.81641ZM9.81641 18.2264C9.53307 18.2264 9.29574 18.1304 9.10441 17.9384C8.91241 17.7471 8.81641 17.5098 8.81641 17.2264V13.2264C8.81641 12.9431 8.91241 12.7054 9.10441 12.5134C9.29574 12.3221 9.53307 12.2264 9.81641 12.2264C10.0997 12.2264 10.3374 12.3221 10.5294 12.5134C10.7207 12.7054 10.8164 12.9431 10.8164 13.2264V14.2264H17.8164C18.0997 14.2264 18.3371 14.3224 18.5284 14.5144C18.7204 14.7058 18.8164 14.9431 18.8164 15.2264C18.8164 15.5098 18.7204 15.7471 18.5284 15.9384C18.3371 16.1304 18.0997 16.2264 17.8164 16.2264H10.8164V17.2264C10.8164 17.5098 10.7207 17.7471 10.5294 17.9384C10.3374 18.1304 10.0997 18.2264 9.81641 18.2264ZM5.81641 12.2264C5.53307 12.2264 5.29541 12.1304 5.10341 11.9384C4.91207 11.7471 4.81641 11.5098 4.81641 11.2264V10.2264H1.81641C1.53307 10.2264 1.29574 10.1304 1.10441 9.93844C0.912406 9.74711 0.816406 9.50977 0.816406 9.22644C0.816406 8.94311 0.912406 8.70544 1.10441 8.51344C1.29574 8.32211 1.53307 8.22644 1.81641 8.22644H4.81641V7.22644C4.81641 6.94311 4.91207 6.70544 5.10341 6.51344C5.29541 6.32211 5.53307 6.22644 5.81641 6.22644C6.09974 6.22644 6.33741 6.32211 6.52941 6.51344C6.72074 6.70544 6.81641 6.94311 6.81641 7.22644V11.2264C6.81641 11.5098 6.72074 11.7471 6.52941 11.9384C6.33741 12.1304 6.09974 12.2264 5.81641 12.2264ZM9.81641 10.2264C9.53307 10.2264 9.29574 10.1304 9.10441 9.93844C8.91241 9.74711 8.81641 9.50977 8.81641 9.22644C8.81641 8.94311 8.91241 8.70544 9.10441 8.51344C9.29574 8.32211 9.53307 8.22644 9.81641 8.22644H17.8164C18.0997 8.22644 18.3371 8.32211 18.5284 8.51344C18.7204 8.70544 18.8164 8.94311 18.8164 9.22644C18.8164 9.50977 18.7204 9.74711 18.5284 9.93844C18.3371 10.1304 18.0997 10.2264 17.8164 10.2264H9.81641ZM13.8164 6.22644C13.5331 6.22644 13.2957 6.13044 13.1044 5.93844C12.9124 5.74711 12.8164 5.50977 12.8164 5.22644V1.22644C12.8164 0.943107 12.9124 0.70544 13.1044 0.51344C13.2957 0.322107 13.5331 0.22644 13.8164 0.22644C14.0997 0.22644 14.3371 0.322107 14.5284 0.51344C14.7204 0.70544 14.8164 0.943107 14.8164 1.22644V2.22644H17.8164C18.0997 2.22644 18.3371 2.32211 18.5284 2.51344C18.7204 2.70544 18.8164 2.94311 18.8164 3.22644C18.8164 3.50977 18.7204 3.74744 18.5284 3.93944C18.3371 4.13077 18.0997 4.22644 17.8164 4.22644H14.8164V5.22644C14.8164 5.50977 14.7204 5.74711 14.5284 5.93844C14.3371 6.13044 14.0997 6.22644 13.8164 6.22644Z" fill="#364E63"/>
</svg>
