<svg width="18" height="16" viewBox="0 0 18 16" fill="none" xmlns="http://www.w3.org/2000/svg">
<path d="M1.92857 1.5C1.77857 1.5 1.65757 1.45 1.56557 1.35C1.47424 1.25 1.42857 1.13333 1.42857 1C1.42857 0.85 1.47424 0.729 1.56557 0.637C1.65757 0.545667 1.77857 0.5 1.92857 0.5H16.0786C16.2286 0.5 16.3496 0.55 16.4416 0.65C16.5329 0.75 16.5786 0.866667 16.5786 1C16.5786 1.15 16.5329 1.27067 16.4416 1.362C16.3496 1.454 16.2286 1.5 16.0786 1.5H1.92857ZM2.30357 15.5C2.0869 15.5 1.89957 15.4207 1.74157 15.262C1.5829 15.104 1.50357 14.9167 1.50357 14.7V9.5H1.05357C0.803572 9.5 0.595238 9.4 0.428571 9.2C0.261905 9 0.211905 8.76667 0.278571 8.5L1.27857 4.125C1.3119 3.94167 1.40357 3.79167 1.55357 3.675C1.70357 3.55833 1.87857 3.5 2.07857 3.5H15.9286C16.1286 3.5 16.3036 3.55833 16.4536 3.675C16.6036 3.79167 16.6952 3.94167 16.7286 4.125L17.7286 8.5C17.7952 8.76667 17.7452 9 17.5786 9.2C17.4119 9.4 17.2036 9.5 16.9536 9.5H16.5036V15C16.5036 15.15 16.4536 15.271 16.3536 15.363C16.2536 15.4543 16.1369 15.5 16.0036 15.5C15.8536 15.5 15.7329 15.4543 15.6416 15.363C15.5496 15.271 15.5036 15.15 15.5036 15V9.5H10.5036V14.7C10.5036 14.9167 10.4242 15.104 10.2656 15.262C10.1076 15.4207 9.92024 15.5 9.70357 15.5H2.30357ZM2.50357 14.5H9.50357V9.5H2.50357V14.5ZM1.27857 8.5H16.7286L15.8036 4.5H2.20357L1.27857 8.5Z" fill="#364E63"/>
</svg>
