<svg width="16" height="16" viewBox="0 0 16 16" fill="none" xmlns="http://www.w3.org/2000/svg">
<path d="M4 4.8C4.21667 4.8 4.404 4.72067 4.562 4.562C4.72067 4.404 4.8 4.21667 4.8 4C4.8 3.78333 4.72067 3.596 4.562 3.438C4.404 3.27933 4.21667 3.2 4 3.2C3.78333 3.2 3.596 3.27933 3.438 3.438C3.27933 3.596 3.2 3.78333 3.2 4C3.2 4.21667 3.27933 4.404 3.438 4.562C3.596 4.72067 3.78333 4.8 4 4.8ZM4 8.8C4.21667 8.8 4.404 8.72067 4.562 8.562C4.72067 8.404 4.8 8.21667 4.8 8C4.8 7.78333 4.72067 7.596 4.562 7.438C4.404 7.27933 4.21667 7.2 4 7.2C3.78333 7.2 3.596 7.27933 3.438 7.438C3.27933 7.596 3.2 7.78333 3.2 8C3.2 8.21667 3.27933 8.404 3.438 8.562C3.596 8.72067 3.78333 8.8 4 8.8ZM4 12.8C4.21667 12.8 4.404 12.7207 4.562 12.562C4.72067 12.404 4.8 12.2167 4.8 12C4.8 11.7833 4.72067 11.596 4.562 11.438C4.404 11.2793 4.21667 11.2 4 11.2C3.78333 11.2 3.596 11.2793 3.438 11.438C3.27933 11.596 3.2 11.7833 3.2 12C3.2 12.2167 3.27933 12.404 3.438 12.562C3.596 12.7207 3.78333 12.8 4 12.8ZM1.625 16C1.15833 16 0.771 15.846 0.463 15.538C0.154333 15.2293 0 14.8417 0 14.375V1.625C0 1.15833 0.154333 0.771 0.463 0.463C0.771 0.154333 1.15833 0 1.625 0H11.575L16 4.425V14.375C16 14.8417 15.846 15.2293 15.538 15.538C15.2293 15.846 14.8417 16 14.375 16H1.625ZM1.625 15H14.375C14.5583 15 14.7083 14.9417 14.825 14.825C14.9417 14.7083 15 14.5583 15 14.375V5H11.8C11.5667 5 11.375 4.925 11.225 4.775C11.075 4.625 11 4.43333 11 4.2V1H1.625C1.44167 1 1.29167 1.05833 1.175 1.175C1.05833 1.29167 1 1.44167 1 1.625V14.375C1 14.5583 1.05833 14.7083 1.175 14.825C1.29167 14.9417 1.44167 15 1.625 15Z" fill="#364E63"/>
</svg>
